<svg width="20" height="20" viewBox="0 0 20 20" fill="none" xmlns="http://www.w3.org/2000/svg">
<path d="M18.5999 9.9999C18.5999 14.7496 14.7496 18.5999 9.9999 18.5999C5.25025 18.5999 1.3999 14.7496 1.3999 9.9999C1.3999 5.25025 5.25025 1.3999 9.9999 1.3999C14.7496 1.3999 18.5999 5.25025 18.5999 9.9999ZM10.0202 5.76939C9.34516 5.31934 8.47716 5.27738 7.76181 5.66022C7.04647 6.04306 6.5999 6.78855 6.5999 7.5999V12.3999C6.5999 13.2113 7.04647 13.9567 7.76182 14.3396C8.47716 14.7224 9.34516 14.6805 10.0202 14.2304L13.6202 11.8304C14.2323 11.4224 14.5999 10.7355 14.5999 9.9999C14.5999 9.26433 14.2323 8.57742 13.6202 8.16939L10.0202 5.76939Z" fill="black" stroke="black" stroke-width="2"/>
</svg>
